<svg width="112" height="112" viewBox="0 0 112 112" fill="none" xmlns="http://www.w3.org/2000/svg">
<path d="M41.006 71.2593C41.006 73.9259 40.2441 76.2115 38.3394 77.7353C36.4347 79.2591 34.149 80.021 31.1015 80.021H27.673V88.7826H22.3398V62.1167H31.1015C34.149 62.1167 36.8156 62.8786 38.3394 64.4023C39.8631 65.9261 41.006 68.2118 41.006 71.2593ZM35.6728 71.2593C35.6728 70.1165 35.2918 68.9736 34.53 68.2118C33.7681 67.4499 32.6253 67.0689 31.1015 67.0689H27.673V75.8306H31.1015C32.6253 75.8306 33.7681 75.4497 34.53 74.6878C35.2918 73.5449 35.6728 72.4021 35.6728 71.2593Z" fill="#063FB2"/>
<path d="M68.0537 75.4497C68.0537 80.021 66.9109 83.0685 64.6253 85.3541C62.3396 87.6398 58.9111 88.7826 54.3398 88.7826H45.1973V62.1167H54.3398C58.5302 62.1167 61.5777 63.2595 64.2443 65.5452C66.9109 68.2118 68.0537 71.2593 68.0537 75.4497ZM62.7206 75.4497C62.7206 72.7831 61.9587 70.8784 60.4349 69.3546C58.9111 67.8308 57.0064 67.0689 54.3398 67.0689H49.7686V84.5923H53.578C60.054 84.2113 62.7206 81.5447 62.7206 75.4497Z" fill="#063FB2"/>
<path d="M89.3863 62.1167V66.688H77.9581V72.7831H89.0054V77.3544H77.9581V88.7826H73.0059V62.1167H89.3863Z" fill="#063FB2"/>
<path d="M93.9582 59.0691H17.7699C16.6271 59.0691 15.8652 58.3073 15.8652 57.1644V2.68986C15.8652 1.54704 16.6271 0.785156 17.7699 0.785156H63.4829C63.8638 0.785156 64.6257 1.1661 65.0066 1.1661L95.4819 32.0223C95.8629 32.4033 95.8629 32.7842 95.8629 33.5461V57.1644C95.8629 57.9263 95.101 59.0691 93.9582 59.0691ZM19.6746 55.2597H92.0534V34.308L62.721 4.59457H19.6746V55.2597Z" fill="#063FB2"/>
<path d="M93.9582 111.258H17.7699C16.6271 111.258 15.8652 110.496 15.8652 109.353V94.1156C15.8652 92.9728 16.6271 92.2109 17.7699 92.2109H93.9582C95.101 92.2109 95.8629 92.9728 95.8629 94.1156V109.353C95.8629 110.496 95.101 111.258 93.9582 111.258ZM19.6746 107.449H92.0534V96.0203H19.6746V107.449Z" fill="#063FB2"/>
<path d="M93.9581 35.4509H63.4828C62.34 35.4509 61.5781 34.689 61.5781 33.5462V2.68994C61.5781 1.92806 61.9591 1.16617 62.7209 0.785232C63.4828 0.404291 64.2447 0.785232 64.6257 1.16617L94.72 31.6415C95.1009 32.0224 95.4819 32.4033 95.4819 33.1652C95.8628 34.689 95.1009 35.4509 93.9581 35.4509ZM65.3875 31.6415H89.3868L65.3875 7.26123V31.6415Z" fill="#063FB2"/>
<path d="M109.195 96.0206H2.53166C1.38884 96.0206 0.626953 95.2587 0.626953 94.1159V56.7836C0.626953 55.6408 1.38884 54.8789 2.53166 54.8789H109.195C110.338 54.8789 111.1 55.6408 111.1 56.7836V94.1159C111.1 95.2587 110.338 96.0206 109.195 96.0206ZM4.43636 92.2112H107.29V58.6883H4.43636V92.2112Z" fill="#063FB2"/>
</svg>
