<svg width="36" height="36" viewBox="0 0 36 36" fill="none" xmlns="http://www.w3.org/2000/svg">
<path d="M36 17.9857C35.9984 14.5476 35.0115 11.1819 33.1561 8.28692C31.3008 5.39197 28.6546 3.08899 25.5308 1.65055C22.407 0.212106 18.9364 -0.301579 15.5296 0.170282C12.1229 0.642143 8.92269 2.0798 6.3078 4.3131C3.6929 6.54641 1.77278 9.48186 0.774673 12.772C-0.223437 16.0622 -0.257759 19.5694 0.675803 22.8784C1.60936 26.1875 3.47171 29.1599 6.04242 31.4439C8.61314 33.7279 11.7846 35.2278 15.1814 35.7662V23.2141H10.6128V18.0061H15.1814V14.0594C15.1814 9.54306 17.8779 7.05094 21.9887 7.05094C23.3523 7.06846 24.7128 7.18746 26.0588 7.40696V11.8317H23.7897C23.4022 11.7816 23.0084 11.819 22.6372 11.9411C22.2661 12.0631 21.927 12.2668 21.6449 12.5371C21.3628 12.8073 21.1449 13.1374 21.0072 13.5029C20.8694 13.8684 20.8154 14.2602 20.8491 14.6493V18.0162H25.8451L25.0107 23.2141H20.8083V35.7865C25.0467 35.1152 28.906 32.953 31.6912 29.6895C34.4764 26.426 36.0044 22.2756 36 17.9857Z" fill="#337FFF"/>
<path d="M25.0107 23.2141L25.8043 18.0061H20.8083V14.6392C20.7747 14.25 20.8287 13.8583 20.9664 13.4927C21.1041 13.1272 21.3221 12.7972 21.6041 12.5269C21.8862 12.2566 22.2253 12.053 22.5965 11.9309C22.9676 11.8088 23.3615 11.7715 23.749 11.8216H26.018V7.39679C24.6721 7.17729 23.3116 7.05829 21.948 7.04077C17.8779 7.04077 15.1407 9.53288 15.1407 14.0492V18.0061H10.572V23.2141H15.1407V35.7865C16.0734 35.9296 17.0157 36.001 17.9593 36.0002C18.8995 36.0014 19.8384 35.93 20.7676 35.7865V23.2141H25.0107Z" fill="white"/>
</svg>
