<svg width="36" height="36" viewBox="0 0 36 36" fill="none" xmlns="http://www.w3.org/2000/svg">
<path d="M36 18C36 8.05887 27.9411 -1.22135e-06 18 -7.86805e-07C8.05887 -3.52265e-07 -1.22135e-06 8.05888 -7.86805e-07 18C-3.52265e-07 27.9411 8.05888 36 18 36C27.9411 36 36 27.9411 36 18Z" fill="#00D95F"/>
<path d="M25.9995 21.9791V24.3877C26.0004 24.6113 25.9545 24.8327 25.8648 25.0375C25.775 25.2424 25.6434 25.4263 25.4783 25.5775C25.3132 25.7286 25.1183 25.8437 24.906 25.9154C24.6938 25.987 24.4689 26.0136 24.2457 25.9935C21.7702 25.725 19.3923 24.8808 17.3031 23.5286C15.3594 22.2959 13.7114 20.6512 12.4763 18.7113C11.1167 16.6168 10.2706 14.2321 10.0065 11.7504C9.98643 11.5283 10.0129 11.3046 10.0842 11.0933C10.1555 10.882 10.2701 10.6879 10.4206 10.5233C10.5712 10.3586 10.7545 10.2271 10.9589 10.137C11.1632 10.0469 11.3841 10.0003 11.6074 10.0001H14.0209C14.4113 9.99624 14.7898 10.1342 15.0858 10.3883C15.3818 10.6424 15.5752 10.9952 15.6298 11.381C15.7317 12.1519 15.9206 12.9087 16.1929 13.6371C16.3012 13.9245 16.3246 14.2368 16.2604 14.5371C16.1963 14.8373 16.0472 15.1129 15.8309 15.3312L14.8092 16.3509C15.9545 18.3609 17.6221 20.0252 19.6361 21.1682L20.6578 20.1485C20.8765 19.9326 21.1527 19.7839 21.4535 19.7198C21.7544 19.6558 22.0673 19.6792 22.3552 19.7872C23.0851 20.059 23.8435 20.2476 24.6158 20.3492C25.0066 20.4042 25.3635 20.6007 25.6186 20.9012C25.8737 21.2017 26.0093 21.5853 25.9995 21.9791Z" fill="white"/>
</svg>
