<svg width="36" height="36" viewBox="0 0 36 36" fill="none" xmlns="http://www.w3.org/2000/svg">
<path d="M18 36C27.9411 36 36 27.9411 36 18C36 8.05888 27.9411 0 18 0C8.05888 0 0 8.05888 0 18C0 27.9411 8.05888 36 18 36Z" fill="#FF0000"/>
<path d="M27.636 15.4358C27.636 14.2889 27.1804 13.189 26.3694 12.378C25.5584 11.567 24.4585 11.1113 23.3116 11.1113H12.2612C11.1143 11.1113 10.0144 11.567 9.20339 12.378C8.3924 13.189 7.93677 14.2889 7.93677 15.4358V20.5743C7.93677 21.7212 8.3924 22.8212 9.20339 23.6322C10.0144 24.4432 11.1143 24.8988 12.2612 24.8988H23.3116C24.4585 24.8988 25.5584 24.4432 26.3694 23.6322C27.1804 22.8212 27.636 21.7212 27.636 20.5743V15.4358ZM21.1341 18.3866L16.1787 20.8389C15.9854 20.9508 15.324 20.8389 15.324 20.5845V15.5477C15.324 15.3239 15.9956 15.1916 16.1889 15.3036L20.9306 17.8779C21.1239 17.9898 21.3376 18.2849 21.1341 18.3866Z" fill="white"/>
</svg>
